<svg width="34" height="48" viewBox="0 0 34 48" fill="none" xmlns="http://www.w3.org/2000/svg">
<path d="M16.9395 0C9.45644 0 4.60965 3.06591 0.804436 8.53369C0.114155 9.52556 0.326967 10.8855 1.28987 11.6156L5.33406 14.6821C6.30653 15.4194 7.69019 15.247 8.45153 14.2932C10.7999 11.3512 12.5418 9.65738 16.21 9.65738C19.0941 9.65738 22.6615 11.5135 22.6615 14.3103C22.6615 16.4245 20.9162 17.5103 18.0684 19.1069C14.7475 20.9688 10.3529 23.2859 10.3529 29.0824V30C10.3529 31.2427 11.3602 32.25 12.6029 32.25H19.397C20.6397 32.25 21.647 31.2427 21.647 30V29.4588C21.647 25.4407 33.3909 25.2733 33.3909 14.4C33.391 6.2115 24.8971 0 16.9395 0ZM16 35.0118C12.4191 35.0118 9.50584 37.9251 9.50584 41.5059C9.50584 45.0867 12.4191 48 16 48C19.5809 48 22.4942 45.0867 22.4942 41.5058C22.4942 37.925 19.5809 35.0118 16 35.0118Z" fill="#2C2C2C"/>
</svg>
